<?xml version="1.0" standalone="no"?>
<!DOCTYPE svg PUBLIC "-//W3C//DTD SVG 20010904//EN"
 "http://www.w3.org/TR/2001/REC-SVG-20010904/DTD/svg10.dtd">
<svg version="1.0" xmlns="http://www.w3.org/2000/svg"
 width="498.000000pt" height="498.000000pt" viewBox="0 0 498.000000 498.000000"
 preserveAspectRatio="xMidYMid meet">

<g transform="translate(0.000000,498.000000) scale(0.100000,-0.100000)"
fill="#000000" stroke="none">
<path d="M0 2490 l0 -2490 2490 0 2490 0 0 2490 0 2490 -2490 0 -2490 0 0
-2490z m1605 664 l-429 -424 532 0 532 0 0 425 0 425 260 0 260 0 0 -425 0
-425 532 0 533 0 -430 424 -430 425 320 0 320 1 553 -553 552 -552 -553 -553
-552 -552 -320 1 -320 0 430 424 430 425 -532 0 -533 0 0 -425 0 -425 -260 0
-260 0 0 425 0 425 -532 0 -533 0 430 -425 430 -424 -320 0 -320 -1 -552 552
-553 553 552 552 553 553 320 -1 320 0 -430 -425z"/>
</g>
</svg>
